# xmcd
# 
# Track frame offsets:
#     150
#     16069
#     32418
#     49771
#     64162
#     81421
#     97717
#     114571
#     130826
#     147013
#     165221
#     180541
# 
# Disc length: 2636
# 
# Revision: 3
# Processed by: cddbd v1.5.2PL0 Copyright (c) Steve Scherf et al.
# Submitted via: fre:ac v1.1beta1pre5
# 
DISCID=890a4a0c
DTITLE=Minea - Sve u četiri oka
DYEAR=2004
DGENRE=Cro-Pop
TTITLE0=Sve u cetiri oka
TTITLE1=Znaci nevjere
TTITLE2=Idi, bas me briga
TTITLE3=Oko moje
TTITLE4=Ja sam se zaljubila
TTITLE5=Tugo moja jedina
TTITLE6=Sad me ljubi
TTITLE7=Neka, neka
TTITLE8=Iskreno i  bez kajanja
TTITLE9=Nikad ne reci nikada
TTITLE10=Rano (Remix)
TTITLE11=Rano (Karma Remix)
EXTD=DJ-SivaDiva
EXTT0=
EXTT1=
EXTT2=
EXTT3=
EXTT4=
EXTT5=
EXTT6=
EXTT7=
EXTT8=
EXTT9=
EXTT10=
EXTT11=
PLAYORDER=
